<svg xmlns="http://www.w3.org/2000/svg" width="1600" height="900" viewBox="0 0 1600 900">
  <defs>
    <linearGradient id="fade" x1="0" y1="0" x2="0" y2="1">
      <stop offset="0" stop-color="#e9ecef"/>
      <stop offset="1" stop-color="#f8fafc"/>
    </linearGradient>
  </defs>
  <rect width="1600" height="900" fill="url(#fade)"/>
  <!-- metal structure beams -->
  <g stroke="#b7c0ca" stroke-width="30">
    <line x1="1200" y1="-100" x2="700" y2="900" />
    <line x1="1450" y1="-100" x2="950" y2="900" />
    <line x1="1000" y1="-100" x2="500" y2="900" />
    <line x1="1320" y1="0" x2="820" y2="1000" />
  </g>
  <g stroke="#8e99a4" stroke-width="14">
    <line x1="1160" y1="-100" x2="660" y2="900" />
    <line x1="1400" y1="-100" x2="900" y2="900" />
  </g>
  <!-- road -->
  <path d="M0,700 C300,640 600,620 900,700 C1200,780 1400,780 1600,760 L1600,900 L0,900 Z" fill="#d1d5db"/>
  <path d="M0,710 C300,650 600,630 900,710 C1200,790 1400,790 1600,770" stroke="#ffffff" stroke-width="8" stroke-dasharray="40,30" fill="none"/>
</svg>
